{"asset":{"version":"2.0","generator":"babylon.js glTF exporter for 3dsmax 2022 v20210811.2"},"scene":0,"scenes":[{"nodes":[0,1,2,3,4,5,6,7,8,9,10,12]}],"nodes":[{"mesh":0,"translation":[-0.271057159,-0.00140380859,-0.07898621],"name":"Object001"},{"mesh":1,"translation":[-3.122716,0.204498708,1.9301132],"scale":[1.606861,0.999098,1.606861],"name":"Object004"},{"mesh":2,"translation":[-0.25953275,4.646695,-0.09770797],"name":"Cylinder003"},{"mesh":3,"translation":[-0.25953275,4.646695,-0.09770797],"name":"Object007"},{"mesh":4,"translation":[-3.20128751,2.787539,1.97322822],"scale":[0.096503,0.096503,0.096503],"name":"Object008"},{"mesh":5,"translation":[-3.04352379,2.787539,-2.180665],"scale":[0.096503,0.096503,0.096503],"name":"Object009"},{"mesh":6,"translation":[0.8424773,2.787539,-3.51374316],"scale":[0.096503,0.096503,0.096503],"name":"Object010"},{"mesh":7,"translation":[3.36571646,2.787539,0.000688476546],"scale":[0.096503,0.096503,0.096503],"name":"Object011"},{"mesh":8,"translation":[0.84659344,2.787539,3.42611718],"scale":[0.096503,0.096503,0.096503],"name":"Object012"},{"mesh":9,"translation":[0.84659344,2.787539,3.42611718],"scale":[0.096503,0.096503,0.096503],"name":"Object020"},{"children":[11],"translation":[-0.04508026,5.10983944,-0.08662109],"name":"Group007"},{"mesh":10,"translation":[-6.21745968,0.007519531,2.95889926],"rotation":[-0.3265056,0.627211332,0.627211452,0.3265055],"scale":[0.5519,0.5519,0.5519],"name":"Object022"},{"mesh":11,"translation":[3.29285145,0.204498708,0.03073493],"scale":[1.606861,0.999098,1.606861],"name":"Object018"}],"meshes":[{"primitives":[{"attributes":{"POSITION":1,"NORMAL":2,"TEXCOORD_0":3},"indices":0,"material":0}],"name":"Object001"},{"primitives":[{"attributes":{"POSITION":5,"NORMAL":6},"indices":4,"material":1}],"name":"Object004"},{"primitives":[{"attributes":{"POSITION":8,"NORMAL":9,"TEXCOORD_0":10},"indices":7,"material":2},{"attributes":{"POSITION":12,"NORMAL":13,"TEXCOORD_0":14},"indices":11,"material":3}],"name":"Cylinder003"},{"primitives":[{"attributes":{"POSITION":16,"NORMAL":17,"TEXCOORD_0":18},"indices":15,"material":4}],"name":"Object007"},{"primitives":[{"attributes":{"POSITION":20,"NORMAL":21,"TEXCOORD_0":22},"indices":19,"material":5}],"name":"Object008"},{"primitives":[{"attributes":{"POSITION":24,"NORMAL":25,"TEXCOORD_0":26},"indices":23,"material":5}],"name":"Object009"},{"primitives":[{"attributes":{"POSITION":28,"NORMAL":29,"TEXCOORD_0":30},"indices":27,"material":5}],"name":"Object010"},{"primitives":[{"attributes":{"POSITION":32,"NORMAL":33,"TEXCOORD_0":34},"indices":31,"material":5}],"name":"Object011"},{"primitives":[{"attributes":{"POSITION":36,"NORMAL":37,"TEXCOORD_0":38},"indices":35,"material":5}],"name":"Object012"},{"primitives":[{"attributes":{"POSITION":40,"NORMAL":41,"TEXCOORD_0":42},"indices":39,"material":2}],"name":"Object020"},{"primitives":[{"attributes":{"POSITION":44,"NORMAL":45},"indices":43,"material":6}],"name":"Object022"},{"primitives":[{"attributes":{"POSITION":47,"NORMAL":48,"TEXCOORD_0":49},"indices":46,"material":3},{"attributes":{"POSITION":51,"NORMAL":52,"TEXCOORD_0":53},"indices":50,"material":2}],"name":"Object018"}],"accessors":[{"bufferView":0,"componentType":5123,"count":2790,"type":"SCALAR","name":"accessorIndices"},{"bufferView":1,"componentType":5126,"count":1021,"max":[3.699456,4.89004755,4.154764],"min":[-4.19607973,0.09208548,-4.14853573],"type":"VEC3","name":"accessorPositions"},{"bufferView":1,"byteOffset":12252,"componentType":5126,"count":1021,"type":"VEC3","name":"accessorNormals"},{"bufferView":2,"componentType":5126,"count":1021,"type":"VEC2","name":"accessorUVs"},{"bufferView":0,"byteOffset":5580,"componentType":5123,"count":6300,"type":"SCALAR","name":"accessorIndices"},{"bufferView":1,"byteOffset":24504,"componentType":5126,"count":2100,"max":[4.570605,0.06447727,1.402214],"min":[-0.485973418,-0.0419070721,-3.929922],"type":"VEC3","name":"accessorPositions"},{"bufferView":1,"byteOffset":49704,"componentType":5126,"count":2100,"type":"VEC3","name":"accessorNormals"},{"bufferView":0,"byteOffset":18180,"componentType":5123,"count":38784,"type":"SCALAR","name":"accessorIndices"},{"bufferView":1,"byteOffset":74904,"componentType":5126,"count":11647,"max":[6.530207,6.971866,6.530207],"min":[-6.530207,-4.708638,-6.530207],"type":"VEC3","name":"accessorPositions"},{"bufferView":1,"byteOffset":214668,"componentType":5126,"count":11647,"type":"VEC3","name":"accessorNormals"},{"bufferView":2,"byteOffset":8168,"componentType":5126,"count":11647,"type":"VEC2","name":"accessorUVs"},{"bufferView":0,"byteOffset":95748,"componentType":5123,"count":31500,"type":"SCALAR","name":"accessorIndices"},{"bufferView":1,"byteOffset":354432,"componentType":5126,"count":14700,"max":[4.554797,-4.377777,4.36011457],"min":[-3.70884633,-4.51387548,-4.35861349],"type":"VEC3","name":"accessorPositions"},{"bufferView":1,"byteOffset":530832,"componentType":5126,"count":14700,"type":"VEC3","name":"accessorNormals"},{"bufferView":2,"byteOffset":101344,"componentType":5126,"count":14700,"type":"VEC2","name":"accessorUVs"},{"bufferView":0,"byteOffset":158748,"componentType":5123,"count":744,"type":"SCALAR","name":"accessorIndices"},{"bufferView":1,"byteOffset":707232,"componentType":5126,"count":248,"max":[6.44122839,0.0148120113,6.44122839],"min":[-6.44122839,0.0148120113,-6.44122839],"type":"VEC3","name":"accessorPositions"},{"bufferView":1,"byteOffset":710208,"componentType":5126,"count":248,"type":"VEC3","name":"accessorNormals"},{"bufferView":2,"byteOffset":218944,"componentType":5126,"count":248,"type":"VEC2","name":"accessorUVs"},{"bufferView":0,"byteOffset":160236,"componentType":5123,"count":744,"type":"SCALAR","name":"accessorIndices"},{"bufferView":1,"byteOffset":713184,"componentType":5126,"count":248,"max":[6.44122839,0.0148120113,6.44122839],"min":[-6.44122839,0.0148120113,-6.44122839],"type":"VEC3","name":"accessorPositions"},{"bufferView":1,"byteOffset":716160,"componentType":5126,"count":248,"type":"VEC3","name":"accessorNormals"},{"bufferView":2,"byteOffset":220928,"componentType":5126,"count":248,"type":"VEC2","name":"accessorUVs"},{"bufferView":0,"byteOffset":161724,"componentType":5123,"count":744,"type":"SCALAR","name":"accessorIndices"},{"bufferView":1,"byteOffset":719136,"componentType":5126,"count":248,"max":[6.44122839,0.0148120113,6.44122839],"min":[-6.44122839,0.0148120113,-6.44122839],"type":"VEC3","name":"accessorPositions"},{"bufferView":1,"byteOffset":722112,"componentType":5126,"count":248,"type":"VEC3","name":"accessorNormals"},{"bufferView":2,"byteOffset":222912,"componentType":5126,"count":248,"type":"VEC2","name":"accessorUVs"},{"bufferView":0,"byteOffset":163212,"componentType":5123,"count":744,"type":"SCALAR","name":"accessorIndices"},{"bufferView":1,"byteOffset":725088,"componentType":5126,"count":248,"max":[6.44122839,0.0148120113,6.44122839],"min":[-6.44122839,0.0148120113,-6.44122839],"type":"VEC3","name":"accessorPositions"},{"bufferView":1,"byteOffset":728064,"componentType":5126,"count":248,"type":"VEC3","name":"accessorNormals"},{"bufferView":2,"byteOffset":224896,"componentType":5126,"count":248,"type":"VEC2","name":"accessorUVs"},{"bufferView":0,"byteOffset":164700,"componentType":5123,"count":744,"type":"SCALAR","name":"accessorIndices"},{"bufferView":1,"byteOffset":731040,"componentType":5126,"count":248,"max":[6.44122839,0.0148120113,6.44122839],"min":[-6.44122839,0.0148120113,-6.44122839],"type":"VEC3","name":"accessorPositions"},{"bufferView":1,"byteOffset":734016,"componentType":5126,"count":248,"type":"VEC3","name":"accessorNormals"},{"bufferView":2,"byteOffset":226880,"componentType":5126,"count":248,"type":"VEC2","name":"accessorUVs"},{"bufferView":0,"byteOffset":166188,"componentType":5123,"count":744,"type":"SCALAR","name":"accessorIndices"},{"bufferView":1,"byteOffset":736992,"componentType":5126,"count":248,"max":[6.44122839,0.0148120113,6.44122839],"min":[-6.44122839,0.0148120113,-6.44122839],"type":"VEC3","name":"accessorPositions"},{"bufferView":1,"byteOffset":739968,"componentType":5126,"count":248,"type":"VEC3","name":"accessorNormals"},{"bufferView":2,"byteOffset":228864,"componentType":5126,"count":248,"type":"VEC2","name":"accessorUVs"},{"bufferView":0,"byteOffset":167676,"componentType":5123,"count":3720,"type":"SCALAR","name":"accessorIndices"},{"bufferView":1,"byteOffset":742944,"componentType":5126,"count":1240,"max":[32.3497047,0.91177994,6.245748],"min":[-48.191185,0.0,-78.1588],"type":"VEC3","name":"accessorPositions"},{"bufferView":1,"byteOffset":757824,"componentType":5126,"count":1240,"type":"VEC3","name":"accessorNormals"},{"bufferView":2,"byteOffset":230848,"componentType":5126,"count":1240,"type":"VEC2","name":"accessorUVs"},{"bufferView":0,"byteOffset":175116,"componentType":5123,"count":13320,"type":"SCALAR","name":"accessorIndices"},{"bufferView":1,"byteOffset":772704,"componentType":5126,"count":4510,"max":[9.728725,-0.09879447,0.518369734],"min":[-13.5303955,-22.3863811,-0.545622],"type":"VEC3","name":"accessorPositions"},{"bufferView":1,"byteOffset":826824,"componentType":5126,"count":4510,"type":"VEC3","name":"accessorNormals"},{"bufferView":0,"byteOffset":201756,"componentType":5123,"count":82614,"type":"SCALAR","name":"accessorIndices"},{"bufferView":1,"byteOffset":880944,"componentType":5126,"count":29328,"max":[1.91026485,5.35880947,4.025129],"min":[-6.09768343,-0.117714204,-4.171198],"type":"VEC3","name":"accessorPositions"},{"bufferView":1,"byteOffset":1232880,"componentType":5126,"count":29328,"type":"VEC3","name":"accessorNormals"},{"bufferView":2,"byteOffset":240768,"componentType":5126,"count":29328,"type":"VEC2","name":"accessorUVs"},{"bufferView":0,"byteOffset":366984,"componentType":5123,"count":6,"type":"SCALAR","name":"accessorIndices"},{"bufferView":1,"byteOffset":1584816,"componentType":5126,"count":4,"max":[-0.2859056,4.5551343,-1.85553539],"min":[-0.2887059,4.263555,-1.85764074],"type":"VEC3","name":"accessorPositions"},{"bufferView":1,"byteOffset":1584864,"componentType":5126,"count":4,"type":"VEC3","name":"accessorNormals"},{"bufferView":2,"byteOffset":475392,"componentType":5126,"count":4,"type":"VEC2","name":"accessorUVs"}],"bufferViews":[{"buffer":0,"byteLength":366996,"name":"bufferViewScalar"},{"buffer":0,"byteOffset":366996,"byteLength":1584912,"byteStride":12,"name":"bufferViewFloatVec3"},{"buffer":0,"byteOffset":1951908,"byteLength":475424,"byteStride":8,"name":"bufferViewFloatVec2"}],"buffers":[{"uri":"stand.bin","byteLength":2427332}],"materials":[{"pbrMetallicRoughness":{"baseColorFactor":[0.0,0.0,0.0,1.0],"metallicFactor":0.0},"emissiveFactor":[1.0,0.99999994,1.00000012],"doubleSided":true,"name":"Material #56","extras":{"babylonSeparateCullingPass":false}},{"pbrMetallicRoughness":{"baseColorFactor":[0.0,0.0,0.0,1.0],"metallicFactor":0.0},"emissiveFactor":[5.87,5.869999,5.870001],"doubleSided":true,"name":"Material #82","extras":{"babylonSeparateCullingPass":false}},{"pbrMetallicRoughness":{"baseColorFactor":[0.7019608,0.7019608,0.7019608,1.0],"metallicFactor":0.0,"roughnessFactor":0.59},"doubleSided":true,"name":"Material #57"},{"pbrMetallicRoughness":{"baseColorFactor":[0.4862745,0.0156862754,0.0156862754,1.0],"metallicFactor":0.0,"roughnessFactor":0.350000024},"doubleSided":true,"name":"Material #59"},{"pbrMetallicRoughness":{"baseColorFactor":[0.0,0.0,0.0,1.0],"metallicFactor":0.0},"emissiveFactor":[4.05,4.05,4.05000067],"doubleSided":true,"name":"Material #83","extras":{"babylonSeparateCullingPass":false}},{"pbrMetallicRoughness":{"baseColorFactor":[0.0,0.0,0.0,1.0],"metallicFactor":0.0},"emissiveFactor":[15.2683983,15.2683973,15.2684011],"doubleSided":true,"name":"Material #150","extras":{"babylonSeparateCullingPass":false}},{"pbrMetallicRoughness":{"baseColorFactor":[0.0,0.0,0.0,1.0],"metallicFactor":0.0},"emissiveFactor":[1.0,0.99999994,1.00000012],"doubleSided":true,"name":"Material #174"}]}